<mxfile host="app.diagrams.net" modified="2023-11-03T10:52:06.955Z" agent="Mozilla/5.0 (Windows NT 10.0; Win64; x64) AppleWebKit/537.36 (KHTML, like Gecko) Chrome/119.0.0.0 Safari/537.36" etag="DasteAUyrcZ6ADWnhqDs" version="22.0.8" type="device" pages="3">
  <diagram name="Architektur" id="Akftkynu3jzg78e7dbrw">
    <mxGraphModel dx="1434" dy="833" grid="1" gridSize="10" guides="1" tooltips="1" connect="1" arrows="1" fold="1" page="1" pageScale="1" pageWidth="827" pageHeight="1169" math="0" shadow="0">
      <root>
        <mxCell id="0" />
        <mxCell id="1" parent="0" />
        <mxCell id="2lvUh1liLz4ZILjcNwon-1" value="" style="rounded=1;whiteSpace=wrap;html=1;" parent="1" vertex="1">
          <mxGeometry x="410" y="245" width="500" height="245" as="geometry" />
        </mxCell>
        <mxCell id="jc_nNN4Ivyb-_Rmc9OOK-3" value="" style="group" parent="1" vertex="1" connectable="0">
          <mxGeometry x="1070" y="300" width="60" height="110" as="geometry" />
        </mxCell>
        <mxCell id="jc_nNN4Ivyb-_Rmc9OOK-2" value="User DB" style="text;html=1;strokeColor=none;fillColor=none;align=center;verticalAlign=middle;whiteSpace=wrap;rounded=0;" parent="jc_nNN4Ivyb-_Rmc9OOK-3" vertex="1">
          <mxGeometry y="80" width="60" height="30" as="geometry" />
        </mxCell>
        <mxCell id="jc_nNN4Ivyb-_Rmc9OOK-1" value="" style="shape=cylinder3;whiteSpace=wrap;html=1;boundedLbl=1;backgroundOutline=1;size=15;" parent="jc_nNN4Ivyb-_Rmc9OOK-3" vertex="1">
          <mxGeometry y="26.670000000000016" width="60" height="80" as="geometry" />
        </mxCell>
        <mxCell id="jc_nNN4Ivyb-_Rmc9OOK-10" value="Game Server" style="ellipse;whiteSpace=wrap;html=1;" parent="1" vertex="1">
          <mxGeometry x="360" y="335" width="100" height="40" as="geometry" />
        </mxCell>
        <mxCell id="jc_nNN4Ivyb-_Rmc9OOK-12" value="Client" style="ellipse;whiteSpace=wrap;html=1;" parent="1" vertex="1">
          <mxGeometry x="190" y="245" width="100" height="40" as="geometry" />
        </mxCell>
        <mxCell id="jc_nNN4Ivyb-_Rmc9OOK-13" value="Client" style="ellipse;whiteSpace=wrap;html=1;" parent="1" vertex="1">
          <mxGeometry x="190" y="305" width="100" height="40" as="geometry" />
        </mxCell>
        <mxCell id="jc_nNN4Ivyb-_Rmc9OOK-14" value="Client" style="ellipse;whiteSpace=wrap;html=1;" parent="1" vertex="1">
          <mxGeometry x="190" y="365" width="100" height="40" as="geometry" />
        </mxCell>
        <mxCell id="jc_nNN4Ivyb-_Rmc9OOK-15" value="Client" style="ellipse;whiteSpace=wrap;html=1;" parent="1" vertex="1">
          <mxGeometry x="190" y="425" width="100" height="40" as="geometry" />
        </mxCell>
        <mxCell id="jc_nNN4Ivyb-_Rmc9OOK-16" value="" style="endArrow=none;html=1;rounded=0;entryX=0;entryY=0.5;entryDx=0;entryDy=0;exitX=1;exitY=0.5;exitDx=0;exitDy=0;" parent="1" source="jc_nNN4Ivyb-_Rmc9OOK-12" target="jc_nNN4Ivyb-_Rmc9OOK-10" edge="1">
          <mxGeometry width="50" height="50" relative="1" as="geometry">
            <mxPoint x="369" y="250" as="sourcePoint" />
            <mxPoint x="459" y="335" as="targetPoint" />
          </mxGeometry>
        </mxCell>
        <mxCell id="jc_nNN4Ivyb-_Rmc9OOK-17" value="" style="endArrow=none;html=1;rounded=0;exitX=1;exitY=0.5;exitDx=0;exitDy=0;entryX=0;entryY=0.5;entryDx=0;entryDy=0;" parent="1" source="jc_nNN4Ivyb-_Rmc9OOK-13" target="jc_nNN4Ivyb-_Rmc9OOK-10" edge="1">
          <mxGeometry width="50" height="50" relative="1" as="geometry">
            <mxPoint x="300" y="305" as="sourcePoint" />
            <mxPoint x="370" y="365" as="targetPoint" />
          </mxGeometry>
        </mxCell>
        <mxCell id="jc_nNN4Ivyb-_Rmc9OOK-18" value="" style="endArrow=none;html=1;rounded=0;entryX=0;entryY=0.5;entryDx=0;entryDy=0;exitX=1;exitY=0.5;exitDx=0;exitDy=0;" parent="1" source="jc_nNN4Ivyb-_Rmc9OOK-14" target="jc_nNN4Ivyb-_Rmc9OOK-10" edge="1">
          <mxGeometry width="50" height="50" relative="1" as="geometry">
            <mxPoint x="310" y="315" as="sourcePoint" />
            <mxPoint x="380" y="375" as="targetPoint" />
          </mxGeometry>
        </mxCell>
        <mxCell id="jc_nNN4Ivyb-_Rmc9OOK-19" value="" style="endArrow=none;html=1;rounded=0;entryX=0;entryY=0.5;entryDx=0;entryDy=0;exitX=1;exitY=0.5;exitDx=0;exitDy=0;" parent="1" source="jc_nNN4Ivyb-_Rmc9OOK-29" target="jc_nNN4Ivyb-_Rmc9OOK-10" edge="1">
          <mxGeometry width="50" height="50" relative="1" as="geometry">
            <mxPoint x="320" y="325" as="sourcePoint" />
            <mxPoint x="390" y="385" as="targetPoint" />
          </mxGeometry>
        </mxCell>
        <mxCell id="jc_nNN4Ivyb-_Rmc9OOK-21" value="(1. Web Anwendung zum registrieren von Spielern erstellen (Web UI + API + Datenbank))" style="text;html=1;align=left;verticalAlign=middle;resizable=0;points=[];autosize=1;strokeColor=none;fillColor=none;" parent="1" vertex="1">
          <mxGeometry x="327" y="670" width="500" height="30" as="geometry" />
        </mxCell>
        <mxCell id="jc_nNN4Ivyb-_Rmc9OOK-22" value="2. Game-Client UI (Wie soll die UI aussehen? Mockups erstellen)" style="text;html=1;align=left;verticalAlign=middle;resizable=0;points=[];autosize=1;strokeColor=none;fillColor=none;" parent="1" vertex="1">
          <mxGeometry x="327" y="715" width="370" height="30" as="geometry" />
        </mxCell>
        <mxCell id="jc_nNN4Ivyb-_Rmc9OOK-23" value="3. Kommunikation der Clients mit dem Gameserver (Websockets)" style="text;html=1;align=left;verticalAlign=middle;resizable=0;points=[];autosize=1;strokeColor=none;fillColor=none;" parent="1" vertex="1">
          <mxGeometry x="327" y="755" width="370" height="30" as="geometry" />
        </mxCell>
        <mxCell id="jc_nNN4Ivyb-_Rmc9OOK-25" value="2" style="ellipse;whiteSpace=wrap;html=1;" parent="1" vertex="1">
          <mxGeometry x="180" y="255" width="20" height="20" as="geometry" />
        </mxCell>
        <mxCell id="jc_nNN4Ivyb-_Rmc9OOK-26" value="2" style="ellipse;whiteSpace=wrap;html=1;" parent="1" vertex="1">
          <mxGeometry x="180" y="315" width="20" height="20" as="geometry" />
        </mxCell>
        <mxCell id="jc_nNN4Ivyb-_Rmc9OOK-27" value="2" style="ellipse;whiteSpace=wrap;html=1;" parent="1" vertex="1">
          <mxGeometry x="180" y="375" width="20" height="20" as="geometry" />
        </mxCell>
        <mxCell id="jc_nNN4Ivyb-_Rmc9OOK-28" value="2" style="ellipse;whiteSpace=wrap;html=1;" parent="1" vertex="1">
          <mxGeometry x="180" y="435" width="20" height="20" as="geometry" />
        </mxCell>
        <mxCell id="jc_nNN4Ivyb-_Rmc9OOK-30" value="" style="endArrow=none;html=1;rounded=0;exitX=1;exitY=0.5;exitDx=0;exitDy=0;" parent="1" source="jc_nNN4Ivyb-_Rmc9OOK-15" edge="1">
          <mxGeometry width="50" height="50" relative="1" as="geometry">
            <mxPoint x="290" y="445" as="sourcePoint" />
            <mxPoint x="360" y="355" as="targetPoint" />
          </mxGeometry>
        </mxCell>
        <mxCell id="jc_nNN4Ivyb-_Rmc9OOK-29" value="3" style="ellipse;whiteSpace=wrap;html=1;" parent="1" vertex="1">
          <mxGeometry x="350" y="345" width="20" height="20" as="geometry" />
        </mxCell>
        <mxCell id="2lvUh1liLz4ZILjcNwon-2" value="Request Handler" style="rounded=1;whiteSpace=wrap;html=1;" parent="1" vertex="1">
          <mxGeometry x="520" y="337.5" width="80" height="35" as="geometry" />
        </mxCell>
        <mxCell id="2lvUh1liLz4ZILjcNwon-5" value="Lobby Handler" style="rounded=1;whiteSpace=wrap;html=1;" parent="1" vertex="1">
          <mxGeometry x="660" y="337.5" width="80" height="35" as="geometry" />
        </mxCell>
        <mxCell id="2lvUh1liLz4ZILjcNwon-6" value="" style="endArrow=none;html=1;rounded=0;entryX=1;entryY=0.5;entryDx=0;entryDy=0;exitX=0;exitY=0.5;exitDx=0;exitDy=0;" parent="1" source="2lvUh1liLz4ZILjcNwon-2" target="jc_nNN4Ivyb-_Rmc9OOK-10" edge="1">
          <mxGeometry width="50" height="50" relative="1" as="geometry">
            <mxPoint x="610" y="360" as="sourcePoint" />
            <mxPoint x="660" y="310" as="targetPoint" />
          </mxGeometry>
        </mxCell>
        <mxCell id="2lvUh1liLz4ZILjcNwon-8" value="" style="endArrow=none;html=1;rounded=0;entryX=0;entryY=0.5;entryDx=0;entryDy=0;exitX=1;exitY=0.5;exitDx=0;exitDy=0;" parent="1" source="2lvUh1liLz4ZILjcNwon-2" target="2lvUh1liLz4ZILjcNwon-5" edge="1">
          <mxGeometry width="50" height="50" relative="1" as="geometry">
            <mxPoint x="530" y="365" as="sourcePoint" />
            <mxPoint x="470" y="365" as="targetPoint" />
          </mxGeometry>
        </mxCell>
        <mxCell id="2lvUh1liLz4ZILjcNwon-13" value="" style="group" parent="1" vertex="1" connectable="0">
          <mxGeometry x="590" y="405" width="60" height="65" as="geometry" />
        </mxCell>
        <mxCell id="2lvUh1liLz4ZILjcNwon-14" value="" style="shape=cylinder3;whiteSpace=wrap;html=1;boundedLbl=1;backgroundOutline=1;size=15;" parent="2lvUh1liLz4ZILjcNwon-13" vertex="1">
          <mxGeometry x="10" width="40" height="43.333333333333336" as="geometry" />
        </mxCell>
        <mxCell id="2lvUh1liLz4ZILjcNwon-15" value="Lobbystore" style="text;html=1;strokeColor=none;fillColor=none;align=center;verticalAlign=middle;whiteSpace=wrap;rounded=0;" parent="2lvUh1liLz4ZILjcNwon-13" vertex="1">
          <mxGeometry y="43.333333333333336" width="60" height="21.666666666666668" as="geometry" />
        </mxCell>
        <mxCell id="2lvUh1liLz4ZILjcNwon-16" value="" style="endArrow=none;html=1;rounded=0;entryX=0.5;entryY=1;entryDx=0;entryDy=0;exitX=0.145;exitY=0;exitDx=0;exitDy=4.35;exitPerimeter=0;" parent="1" source="2lvUh1liLz4ZILjcNwon-14" target="2lvUh1liLz4ZILjcNwon-2" edge="1">
          <mxGeometry width="50" height="50" relative="1" as="geometry">
            <mxPoint x="650" y="360" as="sourcePoint" />
            <mxPoint x="700" y="310" as="targetPoint" />
          </mxGeometry>
        </mxCell>
        <mxCell id="2lvUh1liLz4ZILjcNwon-17" value="" style="endArrow=none;html=1;rounded=0;entryX=0.5;entryY=0;entryDx=0;entryDy=0;exitX=0.145;exitY=1;exitDx=0;exitDy=-4.35;exitPerimeter=0;" parent="1" source="2lvUh1liLz4ZILjcNwon-9" target="2lvUh1liLz4ZILjcNwon-2" edge="1">
          <mxGeometry width="50" height="50" relative="1" as="geometry">
            <mxPoint x="616" y="419" as="sourcePoint" />
            <mxPoint x="570" y="383" as="targetPoint" />
          </mxGeometry>
        </mxCell>
        <mxCell id="2lvUh1liLz4ZILjcNwon-18" value="" style="group" parent="1" vertex="1" connectable="0">
          <mxGeometry x="590" y="240.00333333333333" width="60" height="86.66666666666666" as="geometry" />
        </mxCell>
        <mxCell id="2lvUh1liLz4ZILjcNwon-11" value="" style="group" parent="2lvUh1liLz4ZILjcNwon-18" vertex="1" connectable="0">
          <mxGeometry y="21.666666666666657" width="60" height="65" as="geometry" />
        </mxCell>
        <mxCell id="2lvUh1liLz4ZILjcNwon-9" value="" style="shape=cylinder3;whiteSpace=wrap;html=1;boundedLbl=1;backgroundOutline=1;size=15;" parent="2lvUh1liLz4ZILjcNwon-11" vertex="1">
          <mxGeometry x="10" width="40" height="43.333333333333336" as="geometry" />
        </mxCell>
        <mxCell id="2lvUh1liLz4ZILjcNwon-10" value="Playerstore" style="text;html=1;strokeColor=none;fillColor=none;align=center;verticalAlign=middle;whiteSpace=wrap;rounded=0;" parent="2lvUh1liLz4ZILjcNwon-18" vertex="1">
          <mxGeometry width="60" height="21.666666666666668" as="geometry" />
        </mxCell>
        <mxCell id="2lvUh1liLz4ZILjcNwon-19" value="" style="endArrow=none;html=1;rounded=0;exitX=0.855;exitY=0;exitDx=0;exitDy=4.35;exitPerimeter=0;entryX=0.5;entryY=1;entryDx=0;entryDy=0;" parent="1" source="2lvUh1liLz4ZILjcNwon-14" target="2lvUh1liLz4ZILjcNwon-5" edge="1">
          <mxGeometry width="50" height="50" relative="1" as="geometry">
            <mxPoint x="650" y="380" as="sourcePoint" />
            <mxPoint x="700" y="330" as="targetPoint" />
          </mxGeometry>
        </mxCell>
        <mxCell id="2lvUh1liLz4ZILjcNwon-20" value="Game Handler" style="rounded=1;whiteSpace=wrap;html=1;" parent="1" vertex="1">
          <mxGeometry x="800" y="337.5" width="80" height="35" as="geometry" />
        </mxCell>
        <mxCell id="2lvUh1liLz4ZILjcNwon-21" value="" style="endArrow=none;html=1;rounded=0;exitX=0;exitY=0.5;exitDx=0;exitDy=0;entryX=1;entryY=0.5;entryDx=0;entryDy=0;" parent="1" source="2lvUh1liLz4ZILjcNwon-20" target="2lvUh1liLz4ZILjcNwon-5" edge="1">
          <mxGeometry width="50" height="50" relative="1" as="geometry">
            <mxPoint x="644" y="419" as="sourcePoint" />
            <mxPoint x="720" y="383" as="targetPoint" />
          </mxGeometry>
        </mxCell>
        <mxCell id="2lvUh1liLz4ZILjcNwon-22" value="" style="group" parent="1" vertex="1" connectable="0">
          <mxGeometry x="810" y="400" width="60" height="65" as="geometry" />
        </mxCell>
        <mxCell id="2lvUh1liLz4ZILjcNwon-23" value="" style="shape=cylinder3;whiteSpace=wrap;html=1;boundedLbl=1;backgroundOutline=1;size=15;" parent="2lvUh1liLz4ZILjcNwon-22" vertex="1">
          <mxGeometry x="10" width="40" height="43.333333333333336" as="geometry" />
        </mxCell>
        <mxCell id="2lvUh1liLz4ZILjcNwon-24" value="Gamestore" style="text;html=1;strokeColor=none;fillColor=none;align=center;verticalAlign=middle;whiteSpace=wrap;rounded=0;" parent="2lvUh1liLz4ZILjcNwon-22" vertex="1">
          <mxGeometry y="43.333333333333336" width="60" height="21.666666666666668" as="geometry" />
        </mxCell>
        <mxCell id="2lvUh1liLz4ZILjcNwon-25" value="" style="endArrow=none;html=1;rounded=0;exitX=0.5;exitY=0;exitDx=0;exitDy=0;exitPerimeter=0;entryX=0.5;entryY=1;entryDx=0;entryDy=0;" parent="1" source="2lvUh1liLz4ZILjcNwon-23" target="2lvUh1liLz4ZILjcNwon-20" edge="1">
          <mxGeometry width="50" height="50" relative="1" as="geometry">
            <mxPoint x="644" y="419" as="sourcePoint" />
            <mxPoint x="720" y="383" as="targetPoint" />
          </mxGeometry>
        </mxCell>
        <mxCell id="6abK9zwQOnzaWVAhnB_r-1" value="" style="endArrow=none;html=1;rounded=0;exitX=0;exitY=0.5;exitDx=0;exitDy=0;exitPerimeter=0;entryX=1;entryY=0.5;entryDx=0;entryDy=0;" edge="1" parent="1" source="jc_nNN4Ivyb-_Rmc9OOK-1" target="2lvUh1liLz4ZILjcNwon-1">
          <mxGeometry width="50" height="50" relative="1" as="geometry">
            <mxPoint x="780" y="420" as="sourcePoint" />
            <mxPoint x="830" y="370" as="targetPoint" />
          </mxGeometry>
        </mxCell>
        <mxCell id="6abK9zwQOnzaWVAhnB_r-2" value="Player DB" style="text;html=1;align=center;verticalAlign=middle;resizable=0;points=[];autosize=1;strokeColor=none;fillColor=none;" vertex="1" parent="1">
          <mxGeometry x="1060" y="410" width="80" height="30" as="geometry" />
        </mxCell>
      </root>
    </mxGraphModel>
  </diagram>
  <diagram id="pdXjtm_HNdM_cUdK034X" name="Schnittstellen">
    <mxGraphModel dx="1434" dy="833" grid="1" gridSize="10" guides="1" tooltips="1" connect="1" arrows="1" fold="1" page="1" pageScale="1" pageWidth="827" pageHeight="1169" math="0" shadow="0">
      <root>
        <mxCell id="0" />
        <mxCell id="1" parent="0" />
      </root>
    </mxGraphModel>
  </diagram>
  <diagram id="wfS-uupOWeNP4fwTFZWQ" name="Datenmodelle">
    <mxGraphModel dx="1434" dy="833" grid="1" gridSize="10" guides="1" tooltips="1" connect="1" arrows="1" fold="1" page="1" pageScale="1" pageWidth="827" pageHeight="1169" math="0" shadow="0">
      <root>
        <mxCell id="0" />
        <mxCell id="1" parent="0" />
        <mxCell id="fzGkKKGTEo4MXoBuCSxa-1" value="PlayerInfo" style="swimlane;fontStyle=0;childLayout=stackLayout;horizontal=1;startSize=26;fillColor=none;horizontalStack=0;resizeParent=1;resizeParentMax=0;resizeLast=0;collapsible=1;marginBottom=0;whiteSpace=wrap;html=1;" vertex="1" parent="1">
          <mxGeometry x="60" y="160" width="140" height="78" as="geometry" />
        </mxCell>
        <mxCell id="fzGkKKGTEo4MXoBuCSxa-2" value="+ id: String" style="text;strokeColor=none;fillColor=none;align=left;verticalAlign=top;spacingLeft=4;spacingRight=4;overflow=hidden;rotatable=0;points=[[0,0.5],[1,0.5]];portConstraint=eastwest;whiteSpace=wrap;html=1;" vertex="1" parent="fzGkKKGTEo4MXoBuCSxa-1">
          <mxGeometry y="26" width="140" height="26" as="geometry" />
        </mxCell>
        <mxCell id="fzGkKKGTEo4MXoBuCSxa-3" value="+ name: String" style="text;strokeColor=none;fillColor=none;align=left;verticalAlign=top;spacingLeft=4;spacingRight=4;overflow=hidden;rotatable=0;points=[[0,0.5],[1,0.5]];portConstraint=eastwest;whiteSpace=wrap;html=1;" vertex="1" parent="fzGkKKGTEo4MXoBuCSxa-1">
          <mxGeometry y="52" width="140" height="26" as="geometry" />
        </mxCell>
        <mxCell id="fzGkKKGTEo4MXoBuCSxa-5" value="LobbyInfo" style="swimlane;fontStyle=0;childLayout=stackLayout;horizontal=1;startSize=26;fillColor=none;horizontalStack=0;resizeParent=1;resizeParentMax=0;resizeLast=0;collapsible=1;marginBottom=0;whiteSpace=wrap;html=1;" vertex="1" parent="1">
          <mxGeometry x="260" y="160" width="180" height="156" as="geometry" />
        </mxCell>
        <mxCell id="fzGkKKGTEo4MXoBuCSxa-6" value="+ id: String" style="text;strokeColor=none;fillColor=none;align=left;verticalAlign=top;spacingLeft=4;spacingRight=4;overflow=hidden;rotatable=0;points=[[0,0.5],[1,0.5]];portConstraint=eastwest;whiteSpace=wrap;html=1;" vertex="1" parent="fzGkKKGTEo4MXoBuCSxa-5">
          <mxGeometry y="26" width="180" height="26" as="geometry" />
        </mxCell>
        <mxCell id="fzGkKKGTEo4MXoBuCSxa-7" value="+ name: String" style="text;strokeColor=none;fillColor=none;align=left;verticalAlign=top;spacingLeft=4;spacingRight=4;overflow=hidden;rotatable=0;points=[[0,0.5],[1,0.5]];portConstraint=eastwest;whiteSpace=wrap;html=1;" vertex="1" parent="fzGkKKGTEo4MXoBuCSxa-5">
          <mxGeometry y="52" width="180" height="26" as="geometry" />
        </mxCell>
        <mxCell id="fzGkKKGTEo4MXoBuCSxa-17" value="+ isFull: Boolean" style="text;strokeColor=none;fillColor=none;align=left;verticalAlign=top;spacingLeft=4;spacingRight=4;overflow=hidden;rotatable=0;points=[[0,0.5],[1,0.5]];portConstraint=eastwest;whiteSpace=wrap;html=1;" vertex="1" parent="fzGkKKGTEo4MXoBuCSxa-5">
          <mxGeometry y="78" width="180" height="26" as="geometry" />
        </mxCell>
        <mxCell id="fzGkKKGTEo4MXoBuCSxa-18" value="+ isPrivate: Boolean" style="text;strokeColor=none;fillColor=none;align=left;verticalAlign=top;spacingLeft=4;spacingRight=4;overflow=hidden;rotatable=0;points=[[0,0.5],[1,0.5]];portConstraint=eastwest;whiteSpace=wrap;html=1;" vertex="1" parent="fzGkKKGTEo4MXoBuCSxa-5">
          <mxGeometry y="104" width="180" height="26" as="geometry" />
        </mxCell>
        <mxCell id="fzGkKKGTEo4MXoBuCSxa-21" value="+ isRunning: Boolean" style="text;strokeColor=none;fillColor=none;align=left;verticalAlign=top;spacingLeft=4;spacingRight=4;overflow=hidden;rotatable=0;points=[[0,0.5],[1,0.5]];portConstraint=eastwest;whiteSpace=wrap;html=1;" vertex="1" parent="fzGkKKGTEo4MXoBuCSxa-5">
          <mxGeometry y="130" width="180" height="26" as="geometry" />
        </mxCell>
        <mxCell id="fzGkKKGTEo4MXoBuCSxa-9" value="Game" style="swimlane;fontStyle=0;childLayout=stackLayout;horizontal=1;startSize=26;fillColor=none;horizontalStack=0;resizeParent=1;resizeParentMax=0;resizeLast=0;collapsible=1;marginBottom=0;whiteSpace=wrap;html=1;" vertex="1" parent="1">
          <mxGeometry x="520" y="160" width="150" height="104" as="geometry" />
        </mxCell>
        <mxCell id="fzGkKKGTEo4MXoBuCSxa-10" value="+ lobby: Lobby" style="text;strokeColor=none;fillColor=none;align=left;verticalAlign=top;spacingLeft=4;spacingRight=4;overflow=hidden;rotatable=0;points=[[0,0.5],[1,0.5]];portConstraint=eastwest;whiteSpace=wrap;html=1;" vertex="1" parent="fzGkKKGTEo4MXoBuCSxa-9">
          <mxGeometry y="26" width="150" height="26" as="geometry" />
        </mxCell>
        <mxCell id="fzGkKKGTEo4MXoBuCSxa-11" value="+ currentPlayer: Player" style="text;strokeColor=none;fillColor=none;align=left;verticalAlign=top;spacingLeft=4;spacingRight=4;overflow=hidden;rotatable=0;points=[[0,0.5],[1,0.5]];portConstraint=eastwest;whiteSpace=wrap;html=1;" vertex="1" parent="fzGkKKGTEo4MXoBuCSxa-9">
          <mxGeometry y="52" width="150" height="26" as="geometry" />
        </mxCell>
        <mxCell id="fzGkKKGTEo4MXoBuCSxa-12" value="+ playOrder: Player[]" style="text;strokeColor=none;fillColor=none;align=left;verticalAlign=top;spacingLeft=4;spacingRight=4;overflow=hidden;rotatable=0;points=[[0,0.5],[1,0.5]];portConstraint=eastwest;whiteSpace=wrap;html=1;" vertex="1" parent="fzGkKKGTEo4MXoBuCSxa-9">
          <mxGeometry y="78" width="150" height="26" as="geometry" />
        </mxCell>
      </root>
    </mxGraphModel>
  </diagram>
</mxfile>
